<?xml version="1.0" standalone="no"?>
<!DOCTYPE svg PUBLIC "-//W3C//DTD SVG 20010904//EN"
 "http://www.w3.org/TR/2001/REC-SVG-20010904/DTD/svg10.dtd">
<svg version="1.0" xmlns="http://www.w3.org/2000/svg"
 width="700.000000pt" height="700.000000pt" viewBox="0 0 700.000000 700.000000"
 preserveAspectRatio="xMidYMid meet">
<metadata>
Created by potrace 1.11, written by Peter Selinger 2001-2013
</metadata>
<g transform="translate(0.000000,700.000000) scale(0.100000,-0.100000)"
fill="#000000" stroke="none">
<path d="M4586 6980 c-59 -30 -76 -49 -106 -115 -30 -65 -41 -126 -41 -220 0
-136 11 -171 137 -425 100 -204 199 -429 191 -437 -11 -11 -558 415 -772 602
-55 48 -115 100 -133 116 -39 33 -45 35 -61 15 -9 -11 -11 -62 -7 -188 3 -95
8 -279 11 -408 10 -412 13 -479 20 -490 10 -16 46 -28 102 -36 78 -9 241 -53
343 -91 101 -37 284 -125 311 -149 8 -8 19 -14 22 -14 8 0 123 -78 177 -121
34 -26 51 -33 77 -30 19 2 142 197 194 305 114 244 159 461 154 746 -3 164 -9
211 -50 400 -9 38 -50 161 -72 215 -34 80 -100 181 -153 232 -98 95 -258 138
-344 93z"/>
<path d="M3565 6419 c-323 -329 -688 -607 -1288 -979 -147 -91 -221 -143 -219
-153 1 -8 40 -53 87 -99 98 -98 132 -160 166 -305 14 -58 28 -97 37 -101 18
-6 17 -7 209 124 388 265 669 396 993 464 58 12 116 26 130 29 l25 8 0 519 c0
285 -2 533 -5 549 -10 55 -37 43 -135 -56z"/>
<path d="M3653 5244 c-290 -41 -642 -172 -927 -348 -135 -82 -298 -201 -365
-264 l-51 -49 61 -119 c57 -109 73 -133 90 -134 3 0 51 34 105 76 392 302 687
454 989 510 88 16 281 22 339 11 16 -4 55 -11 85 -17 72 -15 188 -55 276 -96
38 -18 73 -30 77 -28 4 3 22 26 40 52 38 55 68 83 126 118 57 35 56 60 -5 100
-108 70 -255 132 -407 171 -120 30 -290 37 -433 17z"/>
<path d="M4633 4909 c-90 -16 -177 -84 -217 -169 -30 -66 -29 -188 2 -253 53
-106 156 -171 272 -170 40 0 81 7 105 18 22 10 43 19 46 19 12 2 66 53 90 86
68 92 74 236 13 330 -69 108 -187 160 -311 139z"/>
<path d="M3564 4815 c-90 -17 -194 -58 -259 -103 -86 -61 -144 -122 -248 -262
-162 -219 -311 -352 -572 -513 -118 -73 -149 -105 -136 -139 9 -23 21 -30 81
-45 21 -5 219 -5 228 1 4 2 36 7 72 11 36 3 110 14 165 24 55 10 101 18 103
16 1 -1 -12 -19 -29 -41 -43 -55 -65 -83 -170 -219 -97 -125 -234 -291 -248
-299 -4 -3 -24 18 -44 47 -20 29 -50 69 -67 88 -231 262 -332 347 -391 332
-24 -7 -33 -36 -24 -81 10 -56 26 -80 202 -325 91 -126 163 -234 160 -240 -9
-24 -127 -177 -199 -259 -155 -175 -339 -345 -578 -533 -103 -81 -272 -243
-329 -317 -46 -58 -13 -99 55 -69 48 22 248 143 351 212 205 139 491 366 657
524 114 108 110 106 189 104 39 -1 88 2 107 5 19 4 40 3 46 -1 13 -9 36 -118
28 -136 -2 -6 -37 -33 -77 -59 -110 -72 -145 -102 -334 -286 -113 -110 -145
-126 -238 -124 -97 3 -121 -4 -134 -37 -34 -80 89 -181 220 -181 108 0 218 64
414 239 50 45 94 75 101 69 5 -6 8 -126 5 -180 -1 -18 -8 -21 -163 -57 -48
-11 -121 -36 -162 -56 -42 -19 -111 -51 -153 -71 -43 -20 -97 -45 -121 -55
-49 -21 -208 -66 -267 -75 -22 -3 -60 -9 -84 -14 -25 -4 -81 -6 -125 -3 -160
11 -158 11 -168 -19 -26 -77 55 -184 172 -228 57 -22 80 -25 190 -24 132 1
267 26 360 66 140 60 338 174 449 257 30 23 59 41 64 41 12 0 3 -113 -18 -233
-21 -117 -79 -319 -111 -384 -44 -89 -69 -83 -210 47 -153 143 -211 177 -319
187 -82 7 -109 -13 -109 -83 0 -119 132 -255 337 -349 231 -105 336 -70 492
165 45 69 125 183 177 253 52 70 107 153 123 183 16 30 31 57 35 59 3 2 33
-10 67 -26 102 -48 167 -62 299 -64 66 -1 125 -4 131 -8 15 -9 6 -74 -17 -123
-31 -67 -212 -220 -358 -301 -77 -43 -130 -95 -172 -168 -35 -60 -36 -68 -14
-89 18 -18 39 -15 125 20 49 20 171 55 239 68 247 47 300 70 421 183 100 94
178 208 193 285 3 12 9 43 14 68 4 25 9 48 10 53 1 4 2 33 2 65 0 92 -4 90
215 135 130 28 155 27 383 -12 95 -16 190 -27 210 -25 67 9 104 48 94 101 -8
40 -63 85 -173 140 -229 115 -351 148 -594 157 -66 2 -128 7 -137 11 -9 4 -20
21 -23 38 -4 18 -23 72 -42 120 -19 49 -33 90 -31 91 1 1 28 13 58 25 111 47
231 112 270 147 72 66 75 144 6 177 -34 16 -96 17 -212 3 -27 -3 -70 -8 -96
-11 -77 -8 -180 -24 -223 -35 -22 -5 -44 -10 -49 -10 -5 0 -6 34 -2 78 4 57
14 93 37 140 16 34 34 62 38 62 12 0 79 148 95 213 8 32 18 86 21 120 4 34 16
109 27 167 23 122 19 165 -22 237 -43 75 -106 116 -181 117 -67 1 -101 -19
-136 -80 -19 -32 -23 -55 -23 -129 0 -49 -4 -119 -9 -155 -5 -36 -13 -94 -16
-130 -4 -36 -8 -72 -10 -80 -4 -23 -16 -175 -20 -269 -2 -47 -9 -87 -15 -91
-7 -4 -47 -10 -90 -13 -54 -4 -121 -20 -214 -52 -75 -25 -141 -45 -146 -45
-13 0 -38 61 -33 80 3 8 39 34 81 58 90 50 167 107 194 143 30 40 35 100 9
123 -36 32 -93 23 -201 -32 -102 -54 -147 -69 -223 -75 -56 -6 -61 -15 63 123
118 131 196 222 266 310 32 41 62 77 65 80 19 17 218 290 307 423 58 86 109
157 112 157 7 0 124 -121 168 -174 99 -118 206 -285 292 -454 l42 -83 -46 -67
c-79 -118 -63 -155 49 -107 38 16 70 24 75 19 8 -9 66 -146 230 -544 178 -435
224 -506 384 -602 69 -41 475 -310 506 -335 8 -6 44 -33 80 -60 36 -26 73 -55
83 -64 35 -32 116 -70 152 -71 53 -2 89 29 93 79 3 33 -15 76 -122 289 -162
323 -271 493 -358 555 l-27 20 -18 -38 c-12 -25 -31 -44 -56 -56 -49 -23 -243
-54 -334 -53 -119 1 -135 24 -169 236 -3 19 -8 38 -10 41 -4 8 -30 179 -39
266 -4 35 -9 73 -11 85 -1 13 -5 41 -9 63 -3 22 -7 51 -10 65 -2 14 -7 50 -10
80 -4 30 -8 70 -10 89 -5 37 -16 241 -20 361 -2 41 -3 85 -4 98 -2 54 -85 42
-152 -24 l-35 -34 -75 101 c-41 55 -80 109 -88 120 -12 17 -8 30 33 111 25 51
53 122 61 158 34 152 -12 443 -79 499 -19 16 -25 4 -71 -127 -51 -148 -152
-353 -173 -352 -4 1 -34 25 -66 55 l-59 53 26 65 c32 79 53 215 43 279 -8 56
-41 108 -81 128 -38 19 -158 21 -251 5z m-235 -2291 c1 -51 -3 -77 -21 -112
-38 -79 -24 -187 26 -210 27 -12 78 4 127 40 38 28 60 38 103 45 l28 5 -7 -57
c-12 -104 -13 -105 -115 -124 -30 -6 -66 -13 -80 -16 -14 -3 -38 -8 -55 -11
-16 -3 -48 -9 -70 -14 -78 -18 -92 -14 -99 28 -19 118 -76 210 -173 279 -73
52 -73 51 12 96 34 17 297 115 316 116 3 1 7 -29 8 -65z"/>
<path d="M4842 4271 c-78 -29 -93 -42 -86 -75 2 -11 6 -38 9 -61 3 -22 10 -65
15 -95 5 -30 12 -77 16 -105 3 -27 8 -59 9 -70 2 -11 11 -69 19 -130 9 -60 18
-119 20 -130 2 -11 7 -42 10 -70 15 -101 17 -121 21 -145 9 -57 45 -319 50
-365 3 -27 7 -66 10 -85 3 -19 7 -56 10 -82 13 -120 17 -143 31 -170 8 -16 31
-39 50 -50 19 -11 34 -24 34 -28 0 -9 -42 -18 -132 -26 l-66 -6 -5 29 c-4 15
-9 55 -12 88 -3 33 -8 74 -10 90 -13 101 -15 126 -20 180 -3 33 -8 71 -10 85
-3 14 -8 48 -11 75 -3 28 -7 61 -9 75 -2 14 -7 52 -10 86 -3 33 -7 69 -9 80
-2 10 -7 48 -11 84 -3 36 -8 76 -10 90 -2 14 -6 48 -9 75 -13 120 -18 162 -21
185 -2 14 -6 66 -10 115 -13 195 -26 289 -39 297 -22 15 -75 9 -84 -9 -11 -21
-6 -165 13 -403 2 -25 6 -90 10 -145 3 -55 8 -111 10 -125 3 -14 7 -52 10 -85
10 -108 29 -276 60 -505 32 -243 65 -424 81 -441 35 -38 137 -48 254 -24 14 3
35 7 47 9 39 8 75 39 93 82 13 30 29 47 57 60 53 26 65 55 59 135 -7 83 -78
434 -145 719 -27 118 -69 298 -91 400 -23 102 -50 221 -61 265 -12 44 -23 88
-25 98 -7 40 -16 57 -27 56 -7 0 -45 -13 -85 -28z"/>
<path d="M4295 1495 c-81 -28 -93 -90 -29 -140 66 -50 168 -158 212 -224 46
-69 58 -104 66 -200 8 -79 44 -162 94 -215 86 -90 243 -117 356 -62 120 59
197 191 198 341 1 146 -73 275 -204 358 -82 52 -152 73 -358 110 -14 3 -61 12
-104 21 -111 24 -184 27 -231 11z"/>
</g>
</svg>
